<svg xmlns="http://www.w3.org/2000/svg"><path fill="none" d="M-1-1h482v482H-1z"/><g><ellipse stroke="null" ry="182" rx="182" cy="240" cx="240" stroke-opacity="null" stroke-width="null" fill="#CE7975"/><path stroke="null" d="M232.294 296.479c.113.686.217 1.37.308 2.041l-4.727 2.472a51.697 51.697 0 0 0-.313-2.049l4.732-2.464zm-92.874 28.5a62.901 62.901 0 0 1-6.925-15.24c0-.012-.005-.024-.01-.04-1.043-3.484-1.72-6.88-2.051-10.126-1.16-13.588 4.158-24.138 13.52-27.23a18.434 18.434 0 0 1 4.713-.887c2.52-.153 5.11.162 7.702.888 12.914 3.605 25.899 17.397 31.066 34.616.273.923.523 1.84.745 2.74 4.778 19.45-2.823 34.885-16.96 35.73-11.125.674-23.554-7.712-31.8-20.45zm11.667 10.177c-7.144-5.772-13.238-14.623-16.273-24.736-.072-.24-.143-.48-.212-.72-6.072-21.315 4.329-35.876 19.165-33.616a16.855 16.855 0 0 0-1.537.03c-13.243.797-19.216 15.712-14.18 32.511.108.36.222.716.34 1.077 5.326 16.323 19.364 29.05 32.046 28.282 8.77-.526 14.355-7.243 15.663-16.598-.383 10.393-5.334 18.19-13.317 20.24-.428.113-.263.75.163.644 10.405-2.678 15.778-14.526 13.388-28.923-.214-1.355-.43-2.408-.671-3.645a43.713 43.713 0 0 0-1.046-4.225c-4.07-13.555-14.182-24.826-24.732-28.291-18.226-7.752-32.859 8-25.973 32.516.086.303.172.605.263.91 3.074 10.236 9.242 19.202 16.492 25.058.35.273.763-.236.42-.514zm42.862-25.456a57.272 57.272 0 0 0-.907-3.37c-4.447-14.806-14.139-27.322-24.952-33.986h-.005c-5.811-3.581-11.947-5.477-17.768-5.123-4.823.283-8.952 2.113-12.2 5.123a21.284 21.284 0 0 0-2.863 3.268 20.875 20.875 0 0 1 3.128-3.268c3.143-2.632 7.053-4.23 11.618-4.508 5.513-.332 11.263 1.333 16.73 4.508 11.052 6.42 20.943 19.025 25.375 33.807.356 1.195.671 2.378.947 3.549 4.79 20.532-3.185 37.59-19.084 38.546-3.859.232-7.83-.511-11.733-2.063 4.303 1.896 8.686 2.814 12.9 2.56 15.546-.934 23.89-17.8 18.814-39.043zm-41.628-32.093c11.97-.719 25.911 11.792 30.864 28.298.386 1.291.703 2.555.96 3.797 3.022 14.754-3.023 26.142-13.797 26.794-11.6.696-25.055-11.032-30.38-26.794-.17-.499-.332-.998-.482-1.507-4.965-16.551 1.154-29.883 12.835-30.588zm3.697 3.342c-10.878.654-15.703 12.886-11.613 26.513.226.757.475 1.5.748 2.238 4.643 12.596 15.623 22.249 25.628 21.646 9.564-.57 14.448-10.095 12.711-21.646a34.774 34.774 0 0 0-1.099-4.867 39.509 39.509 0 0 0-3.831-8.725 23.416 23.416 0 0 0-1.25-1.97c-5.518-8.177-13.688-13.644-21.294-13.19zm71.95 20.741c.086.701.16 1.397.227 2.088l4.721-2.467a71.843 71.843 0 0 0-.221-2.088l-4.727 2.467zm5.152 3.21l-4.716 2.466c.017.735.024 1.468.014 2.189l4.717-2.457c.008-.725.005-1.453-.015-2.199zm-78.748-50.354l-2.636-.875a41.057 41.057 0 0 0 1.043 3.558 28.562 28.562 0 0 1 1.593-2.683zm1.79-2.4c-.15-.79-.277-1.589-.383-2.398l-5.061-1.692c.162 1.397.386 2.77.669 4.11l3.775 1.249c.327-.436.661-.859 1-1.27zm-.786-8.77v-.14l-4.975-1.54-.005.748c0 1.41.056 2.804.18 4.17l5.036 1.68a49.767 49.767 0 0 1-.236-4.918zm-9.54 63.656c.273.907.576 1.795.913 2.668v.005c4.61 11.986 14.996 20.69 23.938 20.146 8.258-.492 13.103-8.92 11.298-20.151a31.965 31.965 0 0 0-.652-3.089 13.742 13.742 0 0 1-.435 3.089c-.962 3.647-3.46 6.222-7.257 6.448-4.083.246-8.377-2.393-11.52-6.448a22.663 22.663 0 0 1-3.775-7.329c-2.34-7.788.362-15.065 6.872-15.456 1.414-.086 2.852.174 4.262.723-4.238-3.492-8.98-5.457-13.376-5.194-9.311.558-14.284 11.207-10.268 24.588zm13.94-5.094a21.14 21.14 0 0 0 4.278 7.762v.005c2.809 3.21 6.345 5.145 9.496 4.955 2.771-.17 4.884-2.029 5.806-4.96.728-2.3.72-5.26-.273-8.573a21.017 21.017 0 0 0-1.827-4.287 19.707 19.707 0 0 0-1.168-1.844c-2.954-4.17-7.125-6.81-10.782-6.59-4.94.297-7.793 5.995-5.53 13.532zm-9.737-33.44c-4.075.248-7.636 1.6-10.572 3.843a19.46 19.46 0 0 0-2.464 2.246 18.552 18.552 0 0 1 3.18-2.246h.004c2.447-1.37 5.256-2.196 8.386-2.383 4.038-.246 8.192.62 12.248 2.383h.004c12.093 5.246 23.32 18.462 28.036 34.189.322 1.062.603 2.122.856 3.167v.005c4.65 19.62-2.885 36.29-18.41 37.219-2.076.128-4.178-.04-6.281-.465 2.985.903 5.983 1.301 8.9 1.124 15.287-.92 23.292-17.434 18.447-37.88a58.253 58.253 0 0 0-.903-3.357c-4.55-15.161-14.829-27.898-26.105-34v-.004c-5.051-2.735-10.302-4.147-15.326-3.842zm77.022 27.767c.14.669.27 1.335.386 2l4.73-2.47a69.577 69.577 0 0 0-.387-2l-4.73 2.47zm5.454 17.8l-4.65 2.427a45.04 45.04 0 0 1-.445 2.435l4.599-2.398c.191-.804.356-1.625.496-2.464zm-.705 3.318l-4.575 2.393c-.204.87-.432 1.723-.683 2.557l4.48-2.336c.288-.849.551-1.717.778-2.614zm1.116-6.48l-4.69 2.446a46.902 46.902 0 0 1-.255 2.34l4.665-2.433c.11-.775.206-1.56.28-2.353zm.098-1.203c.04-.608.072-1.225.091-1.85l-4.709 2.46a44.787 44.787 0 0 1-.108 2.257l4.697-2.449.03-.418zm-8.89-18.848a76.3 76.3 0 0 0-8.403-18.508c-10.67-17.055-27.136-28.39-41.886-27.502-9.294.56-16.327 5.865-20.294 14.177l1.687-1.013c3.905-7.171 10.37-11.627 18.673-12.124 14.087-.846 30.062 9.948 40.595 26.462a75.207 75.207 0 0 1 8.635 18.81c1.982 6.606 2.86 12.86 2.779 18.546-.236 17.23-9.26 29.253-22.982 30.077a28.936 28.936 0 0 1-3.298-.005l-1.589.902a28.09 28.09 0 0 0 4.95.143c4.592-.273 8.65-1.729 12.056-4.144 7.378-5.218 11.719-14.94 11.89-26.976.08-5.816-.813-12.185-2.813-18.845zm-.934 39.134l3.622-1.89c.78-1.031 1.486-2.14 2.125-3.32l-4.141 2.166a30.744 30.744 0 0 1-1.606 3.044zm-8.258-20.286c-.116-4.619-.908-9.584-2.457-14.748a66.836 66.836 0 0 0-11.913-22.608v-.005c-9.11-11.3-21.164-18.359-32.125-17.695-3.355.2-6.37 1.107-8.957 2.602a343.177 343.177 0 0 0-5.93 3.478c.862-.148 1.737-.251 2.642-.305 9.289-.561 19.136 4.075 27.485 11.927v.003c7.919 7.444 14.487 17.78 17.95 29.329a60.657 60.657 0 0 1 1.84 8.027h.004c1.899 12.02-.354 22.68-5.936 29.545 1.913-1.096 3.863-2.203 5.82-3.317 7.543-4.525 11.872-14.183 11.577-26.233zm-10.816 27.514l-3.409 1.945c.733.018 1.461.005 2.177-.041 13.213-.795 22.143-12.43 22.372-29.418.076-5.605-.792-11.787-2.762-18.358a74.709 74.709 0 0 0-8.782-19c-10.44-16.165-26.105-26.625-39.776-25.8-7.661.459-13.708 4.377-17.552 10.77.777-.462 1.564-.92 2.348-1.367 2.802-1.61 6.038-2.584 9.611-2.8 11.898-.719 24.701 7.057 34.118 19.196h.005c4.957 6.387 8.978 13.979 11.438 22.175 1.586 5.278 2.402 10.396 2.513 15.184v.005c.295 12.417-4.146 22.632-12.301 27.51zm-2.157-27.514a59.636 59.636 0 0 0-1.768-7.592c-3.59-11.974-10.526-22.487-18.735-29.767h-.002c-7.83-6.945-16.817-10.934-25.173-10.43-4.929.293-9.122 2.118-12.42 5.12 1.955-.727 4.08-1.172 6.36-1.308 6.844-.413 14 2.069 20.596 6.618h.008c10.395 7.157 19.406 19.433 23.638 33.554.386 1.282.723 2.55 1.01 3.805 3.281 14.175.766 26.892-6.211 34.166 10.159-4.726 15.36-17.915 12.697-34.166zm28.736 11.212l-4.439 2.319a36.88 36.88 0 0 1-1.03 2.74l4.24-2.211c.45-.913.86-1.86 1.23-2.848zm-2.454-16.418c.054.718.096 1.428.128 2.134l4.722-2.464a53.865 53.865 0 0 0-.128-2.14l-4.722 2.47zm31.314-165.086c-.241.17-2.32 1.294-4.52 2.46v1.568c.937-.486 2.59-1.352 4.269-2.235 2.612-1.377 5.12-2.73 5.292-2.85.106-.074.145-.104.14-.163 0-.172-.61-.307-1.623-.573l-22.979-6.352c-2.179-.413-3.713-.381-8.507 1.601l-.103.042 1.815.511c3.864-1.48 5.501-1.51 7.698-1.084l16.676 4.604c1.783.474 3.416 1.362 1.842 2.471zm-43.15-4.786c-1.732-.408-3.352.682-3.638 2.46-.287 1.817.932 3.637 2.703 4.053 1.731.408 3.352-.682 3.635-2.462.288-1.813-.932-3.635-2.7-4.05zm38.61 6.508c2.122-1.124 3.952-2.123 4.132-2.243.993-.674-1.437-1.272-1.604-1.313l-16.64-4.597c-1.888-.364-3.304-.388-6.48.743l18.354 5.155c1.067.292 2.113 1.101 2.238 2.255zm-99.288 96.3l-4.881-1.616a47.24 47.24 0 0 0-.414 4.513l4.96 1.537a46.82 46.82 0 0 1 .335-4.434zm125.312-92.073l-24.885 12.338c-.096 15.61-.278 33.705-.332 52.943 10.956-6.054 22.374-11.145 34.183-15.33l-8.966-49.95zM189.166 126.5l24.922 7.02a4.317 4.317 0 0 1 2.63-.186 4.806 4.806 0 0 1 2.635 1.67l26.905 7.58c1.134.307 2.223 1.226 2.112 2.525l.025.157c-2.59 22.586-3.443 49.663-3.443 72.103 0 2.595.015 5.182.034 7.774v.445s-.03.342-.236.536c3.099-.371 8.578-2.995 8.578-5.516 0-30.02.389-57.864.389-78.824 0-.3-.015-.472-.045-.585-.12-.564-.69-.896-1.239-1.048l-60.813-17.08c-2.016-.295-4.121.957-4.453 3.042l-.05.414a3.081 3.081 0 0 1 2.049-.027zm41.928 5.152c4.963-2.046 6.807-2.17 9.353-1.678l23.016 6.363c1.778.575 2.67.54 2.67 2.272l-.029 1.623c0 .716-.307 1.077-.676 1.37-.293.234-3.008 1.67-5.494 2.983a2020.903 2020.903 0 0 1-4.894 2.563l-.02 5.225 29.007-13.444-50.65-13.531s-.121-.04-.279-.076c-1.37-.296-2.914.063-4.168.585-1.134.502-5.99 2.769-8.413 3.905l9.05 2.543 1.527-.703zm78.492 73.674l14.569-8.15-17.35 5.534c1.335.762 2.52 1.674 2.781 2.616zm-13.656-8.15c1.296.384 3.88 1.518 4.063 2.824.519.145 1.465.425 2.575.818.383.138 1.406.512 2.555 1.038l26.058-8.31-38.387-10.59 1.931 13.915c.307.064.73.163 1.205.305zm-39.761-40.964l25.082-12.434c.442-.219.86-.007.946.475l9.218 51.372c.051.273-.167.651-.428.742 0 0-14.785 5.12-26.533 11.17a294.69 294.69 0 0 0-8.622 4.614l-.01 4.04c2.272-1.313 6.239-3.543 11.642-6.327 10.533-5.42 23.479-10.103 26.191-11.065l-8.214-59.071-29.26 13.565-.012 2.92zm46.772 47.55c-.892.6-3.396 1.57-8.44 3.458-16.192 6.057-35.054 16.661-43.108 21.093-6.889 3.787-11.773 2.103-12.336 1.889-2.23-.72-57.3-18.555-58.11-18.777-1.175-.32-1.687-.902-1.788-1.559-2.57 1.813-6.399 5.327-3.037 6.623 27.187 10.499 52.618 18.083 58.602 19.728 0 0 4.154 1.436 9.719 1.985 5.59.548 12.537.182 18.189-3.33 13.838-8.58 44.9-28.348 45.53-28.975.12-.118.136-.217.14-.234-.14-.885-2.43-2.05-4.716-2.983.064.445-.34.883-.645 1.082zm-47.12 13.959v2.078c9.469-5.196 22.96-12.296 35.075-16.622.115-.042 7.545-2.47 7.742-3.06-.418-.767-2.359-1.485-3.719-1.836l.197 1.409s-15.29 5.3-27.047 11.35c-5.949 3.066-10.167 5.464-12.247 6.681zm-47.242-84.377c-6.723 13.12-11.042 33.29-11.042 56.083 0 3.409.022 6.466.229 9.754 0 0 .032.373.054.651.662.605 1.527 1.13 2.735 1.518 8.605 2.759 17.655 5.516 18.21 5.686 1.314.255 2.976.051 3.097-1.68.167-2.317 1.392-37.583 3.017-67.423l-3.506-.989-.423 4.958c-.096 1.185-1.206 1.869-2.283 1.589l-5.914-1.545c-1.036-.268-1.793-1.296-1.71-2.36l.436-5.428-2.9-.814zm-43.26 81.559l-4.127-1.343a33.483 33.483 0 0 0-2.949 3.492l4.36 1.4a35.822 35.822 0 0 1 2.716-3.55zm4.136-3.98l-3.696-1.202a28.546 28.546 0 0 0-3.495 2.791l4.036 1.314a31.235 31.235 0 0 1 3.155-2.902zm-7.594 8.68l-4.422-1.42a38.66 38.66 0 0 0-2.533 4.353l4.58 1.488a40.546 40.546 0 0 1 2.375-4.422zm-2.912 5.638l-4.618-1.5a42.554 42.554 0 0 0-1.68 4.29l4.746 1.514a44.57 44.57 0 0 1 1.552-4.304zm59.315-83.224l.73.19c.38.1.615-.143.64-.413l.096-1.122a4.214 4.214 0 0 1-1.466 1.345zm-61.236 88.8l-4.768-1.523a44.833 44.833 0 0 0-1.2 5.192l4.862 1.61a46.16 46.16 0 0 1 1.106-5.28zm16.647-22.7l-3.04-.986a25.171 25.171 0 0 0-3.425 1.673l3.531 1.146a28.304 28.304 0 0 1 2.934-1.832zm7.041-2.542a22.351 22.351 0 0 0-7.998.843l2.659.866a24.179 24.179 0 0 1 5.339-1.71zm21.828-.47a1531.58 1531.58 0 0 0 19.534 6.097c1.405.275 3.192.056 3.325-1.8.177-2.477 1.028-38.618 2.757-70.545l-2.06-.58c-1.619 29.791-2.839 64.858-3.004 67.167-.182 2.556-2.604 3.25-4.64 2.784 0 0-9.387-2.855-18.277-5.705a9.639 9.639 0 0 1-1.911-.831c.538 1.185 1.716 2.59 4.276 3.413zm-17.709 1.436c.812.27 58.22 18.806 58.22 18.806s.131.05.293.067c.187.032.313-.096.332-.264a453.438 453.438 0 0 1-.051-7.78c0-27.862 1.274-53.214 3.426-72.08a.633.633 0 0 1-.005-.255c.08-.627-.625-1.035-1.139-1.178l-16.443-4.633c-1.719 31.864-2.567 67.8-2.742 70.27-.196 2.74-2.796 3.488-4.975 2.986 0 0-10.073-3.061-19.61-6.116-3.925-1.259-5.359-3.47-5.693-7.07-.212-3.328-.231-6.424-.231-9.867 0-22.79 4.289-43.081 11.066-56.45l-18.52-5.218s-.197-.072-.443-.096c-.477-.054-1.028.074-1.15.6-1.934 17.78-3.053 44.86-2.613 77.887.013.182.094.327.278.391zM156.7 243.376c0 2.575.19 5.086.585 7.516a24.1 24.1 0 0 1 6.8-5.037v-20.899c0-4.668 3.738-10.422 8.295-12.977l5.226-2.669.357-.201c.715-.544 1.396-.989 1.93-1.277.248-.312.551-.62.878-.917-13.546 2.813-24.071 17.945-24.071 36.461zm24.595-33.23c.811.222 55.963 18.086 58.198 18.804 0 0 .293.116.777.226 3.517.81 7.423-.342 10.482-2.026 8.088-4.447 27.027-15.09 43.288-21.172 4.308-1.61 6.605-2.504 7.675-3.037l-.494-.14-3.104-.832c-1.382.623-3.694 1.35-6.773 2.45-13.021 4.65-27.627 12.515-37.07 17.743-1.788 3.589-9.28 5.91-11.475 5.143-2.752-.967-55.752-17.96-56.627-18.253a1.705 1.705 0 0 1-1.107-1.05l-.652-.212c-.543-.179-.93-.6-1.09-1.104-1.539.954-4.14 2.885-2.028 3.46zm156.222 57.498c-1.984.767-3.794.72-5.351.032l-2.791-.964c-3.65-1.67-5.826-6.692-5.67-13.123.232-9.296 5.217-18.89 11.432-21.277 1.753-.676 3.43-.625 4.962-.158l2.934.932c2.307.95 4.068 3.276 5.054 6.449l-.04-30.653c0-7.633-4.874-10.705-10.936-7.311l-20.038 11.224v4.69l1.628-.93v15.137l2.415-1.421c.932-.561 2.238-.362 2.302 1.005v54.208c0 .098-.01.745-.024.823a.564.564 0 0 1-.02.158c-.162.87-.826 1.802-1.628 2.277l-3.045 1.793v9.923l-1.628 1.183v3.667L338.5 292.56c4.773-3.65 8.4-11.322 9.372-20.22v-.005c.167-1.532.251-3.103.251-4.694l-.02-15.024c-1.697 7.001-5.77 13.18-10.587 15.026zM179.142 241.63l-3.2 1.672c1.223.022 2.45.113 3.682.28l3.822-1.996a28.215 28.215 0 0 0-3.532-.015c-.258.015-.514.037-.772.059zm125.966 23.988c-2.622 1-3.276 4.685-2.329 6.726.51 1.09 1.476 1.711 2.848 1.19a3.8 3.8 0 0 0 1.603-1.19c2.14-2.666 1.168-7.98-2.122-6.726zm-57.264 74.24c-.706 1.193-1.844 2.058-3.251 2.432l3.256 1.06-.005-.093v-3.4zm-.58-3.684c-.38-3.197-3.3-6.074-6.485-6.392-2.885-.292-4.956 1.638-4.875 4.45.16-.178.3-.31.46-.431l1.628-1.557c3.44-2.917 8.999 2.973 5.824 6.18l-1.658 1.579c-.322.357-.725.63-1.195.804.475.17.971.283 1.47.33 3.062.312 5.204-1.882 4.83-4.963zm16.988-40.379l.273.101c.273.037.645-.047 1.134-.322l24.224-13.3c2.943-1.608 2.434-4.446 2.464-7.242.01-.72-.433-1.267-1.724-.556l-24.224 13.295c-2.939 1.613-2.435 4.45-2.464 7.242-.005.335.086.635.317.782zm-2.656-51.937l50.651-28.363v92.683l-58.255 34.648v-87.154c0-4.11 3.387-9.456 7.604-11.814zm37.135 27.079c.052.497.145.967.288 1.402v.005c.846 2.693 3.219 4.26 5.912 3.234.802-.305 1.527-.814 2.157-1.449a5.285 5.285 0 0 0 1.628-1.788c.782-1.382 1.008-3.079.76-4.564a6.994 6.994 0 0 0-.04-.551c-.364-3.522-3.069-5.833-6.2-4.638-2.936 1.119-4.866 4.879-4.505 8.349zm-37.191 19.989c-.02 1.234-.822 5.162 1.37 5.789l.735.266c.13.061.263.115.457.167.66.145 1.456-.005 2.201-.413l24.224-13.298c3.492-1.915 3.118-5.053 3.15-8.388.015-1.139-.509-1.815-1.249-2.076l-1.21-.452c-.73-.22-1.547-.06-2.339.376l-24.223 13.295c-1.68.925-3.1 2.985-3.116 4.734zm-19.91 46.571c-.178-1.488-1.552-2.843-3.03-2.995-1.363-.136-2.29.811-2.125 2.188.18 1.486 1.559 2.838 3.037 2.986 1.358.14 2.285-.804 2.117-2.179zm1.315-.16c1.805-1.933-1.906-5.84-4.043-4.124 2.022.285 3.797 2.083 4.043 4.124zm-20.449-6.237a27.875 27.875 0 0 1-2.242 2.94 22.518 22.518 0 0 0 5.526-4.656l-3.284 1.716zm-48.742-87.753c.246-.013.492-.023.735-.032l2.762-1.444c-2.012.337-3.9.91-5.656 1.692a28.77 28.77 0 0 1 2.159-.216zm60.876 91.558c-.464-3.918 2.371-6.832 6.284-6.438 2.934.287 5.644 2.365 6.93 5.048l-.005-72.89c-.081-3.787-1.92-8.278-4.687-11.529-1.609-1.893-3.492-3.322-5.475-3.966l-62.66-20.375c-4.05-1.319-7.06.703-7.114 4.303v14.759l.755-.424c3.256-1.913 7.007-3.066 11.17-3.315 16.664-1 34.932 12.68 45.615 32.263a77.462 77.462 0 0 1 6.197 14.812c2.41 8.023 3.332 15.69 2.882 22.544-.74 11.212-5.157 20.26-12.758 25.161l5.339 1.736 9.561 3.109c-.774-.728-1.328-1.694-1.48-2.73a7.662 7.662 0 0 1-.554-2.068zm-8.177-41.276c.16.661.318 1.313.463 1.965l4.731-2.474a68.112 68.112 0 0 0-.462-1.96l-4.732 2.469zm76.783-19.038c-.806-.442-1.387-1.259-1.728-2.247v-.005c-.913-2.678-.045-6.63 3.17-7.85.767-.293 1.45-.35 2.056-.222-.736-.678-1.754-.924-3.025-.44-3.33 1.272-4.265 5.748-3.256 8.517.491 1.333 1.433 2.267 2.783 2.247zm42.848-32.855l1.09-.615c-1.25-5.634-4.862-8.2-8.839-6.67-5.484 2.11-10.356 11.03-10.582 20.073-.226 9.166 4.242 13.828 9.289 11.89 5.085-1.957 9.64-9.763 10.456-18.092l-.902.506c-.667 7.248-4.626 14.303-9.395 16.138-5.331 2.056-9.227-3.14-9.035-10.875.197-7.788 4.375-15.761 9.49-17.729 3.9-1.502 7.127.908 8.428 5.374zm-8.221-8.524l.307-.11c-.796-.04-1.652.095-2.555.444-5.489 2.108-10.36 11.025-10.582 20.07-.14 5.65 1.557 9.685 4.026 11.404-1.754-2.476-2.732-6.212-2.622-10.53.224-9.29 5.214-18.885 11.426-21.278zm-5.305 19.354c-.115 4.693 2.172 7.095 4.761 6.097 2.819-1.082 5.307-5.654 5.428-10.282.116-4.695-2.172-7.1-4.766-6.1-2.813 1.085-5.307 5.652-5.423 10.285zm-3.726 1.54c-.181 7.358 3.252 11.566 7.489 10.447v-4.99c-2.718.157-4.525-2.912-4.42-7.014.097-4.018 1.936-8.147 4.42-10.068v-4.673c-4.055 2.715-7.321 9.493-7.489 16.298zm17.225-11.596c-.106.054-.211.067-.302.035s-.163-.106-.197-.234c-1.178-4.537-4.178-6.672-7.66-5.331a7.254 7.254 0 0 0-.913.422v4.636c.25-.15.5-.273.76-.369 3.401-1.306 5.784 2.032 5.664 6.729-.116 4.754-2.666 9.66-5.846 10.885a4.37 4.37 0 0 1-.576.177v4.881c4.457-1.74 8.345-8.538 8.967-15.702a.286.286 0 0 1 .056-.2.354.354 0 0 1 .153-.13l2.796-1.574-.024-5.848-2.878 1.623zm6.7 25.13c0 1.573-.082 3.142-.242 4.704-1.018 9.99-5.211 19.327-11.426 24.059L318.73 309.7l-62.494 37.184c-.529.334-1.067.654-1.638.907-2.58 1.235-5.774.876-7.867.064l-7.422-2.415-18.772-6.103-3.18 1.635c-6.17 4.156-13.641 5.366-20.77 4.358-.748.44-1.533.89-2.256 1.315l-1.05.559a24.75 24.75 0 0 1-5.762 2.407c-3.472 2.287-7.545 3.655-12.094 3.925-16.52.996-33.547-12.71-42.821-30.689a62.909 62.909 0 0 1-5.219-13.147 59.38 59.38 0 0 1-.961-4.178c-2.634-12.779-.839-24.989 5.223-33.178 1.744-2.356 3.84-4.38 6.284-5.996 2.137-2.641 4.726-4.818 7.724-6.401.866-.52 1.739-1.048 2.614-1.59-1.635-4.925-2.508-10.303-2.508-15.918 0-21.969 14.025-41.566 33.274-41.566-.256-30.591.95-55.77 2.786-72.65a5.042 5.042 0 0 1 .672-2.046l.066-.592c.509-4.786 5.519-7.877 10.093-7.034l25.613 7.189c2.344-1.097 7.673-3.586 8.844-4.102 1.871-.778 4.928-1.424 7.545-.699l51.669 13.804c.725.162 2.277.698 3.118 2.201 0 0 .307.654.379 1.035.1.524.302 1.761.302 1.761l5.452 39.176 43.31 11.923c4.894 1.23 10.03 4.48 11.793 9.775 1.315 2.285 1.997 5.116 1.997 8.263l.083 58.762zm-3.131-20.713l-.035-6.605c0-.173-.071-.288-.182-.335l-.04-31.11c0-2.84-.658-5.179-1.738-6.895-1.163-4.021-5.201-6.862-9.625-7.951l-45.41-12.503-5.851-42.063-.091-.576c-.086-.546-.61-.826-1.1-.922l-51.777-13.83c-1.655-.456-3.878-.065-5.364.55-1.497.664-9.851 4.58-9.851 4.58l-26.651-7.49c-2.6-.479-5.185 1.06-5.935 3.628-.098.337-.128.56-.128.56-.051.48-.113.967-.157 1.464-.32.308-.536.708-.583 1.154-1.896 17.443-3.01 43.804-2.636 75.853a23.704 23.704 0 0 0-3.433-.25c-16.691 0-29.966 17.29-29.966 38.258 0 5.878 1.015 11.453 2.892 16.44-.224.492-.436.986-.64 1.493a374.071 374.071 0 0 1-4.048 2.457c-2.761 1.446-5.142 3.482-7.092 6a20.8 20.8 0 0 0-4.228 3.51c-6.586 7.077-9.07 19.091-6.283 32.558a53.747 53.747 0 0 0 1.15 4.798c.062.216.129.438.193.657a59.97 59.97 0 0 0 4.53 10.975c8.99 17.427 25.042 29.79 39.682 28.906 4.186-.25 7.843-1.551 10.905-3.684a20.971 20.971 0 0 0 5.563-2.26l1.023-.538a333.305 333.305 0 0 1 3.226-1.872c2.388.418 4.788.57 7.144.433 4.81-.295 9.033-1.768 12.575-4.195l3.848-1.978c.246-.123.49-.255.73-.383l6.456 2.102 13.637 4.432 7.528 2.45.09.041c1.557.613 3.76.753 5.278-.012.256-.106.586-.293.827-.438.263-.157.484-.292.484-.292l57.731-34.344 26.961-16.042c5.202-3.947 8.986-12.09 9.963-21.32.162-1.541.25-3.113.25-4.696 0 0-.014-11.473-.02-19.443l.006-.116.02-.866a.534.534 0 0 0 .172-.29zm-4.747-47.353c-3.482-4.286-11.322-6.146-16.066-3.49l-18.088 10.135c2.752.713 4.923 2.563 5.1 5.755l20.646-11.559c3.207-1.8 6.146-1.97 8.408-.84zm-22.8 86.68l.02-.082V231.36c-.13-.056-.211-.027-.322.035l-3.074 1.812v55.81l2.402-1.418c.465-.271.883-.871.974-1.346zm-5.668 3.467v.435c.201.101.327.02.442-.051l.53-.31V233.99c-.466.308-.817.817-.928 1.235.36.207.625.59.625 1.141v52.19c0 .579-.29.965-.67 1.164zm-2.843-74.968v92.566l.942-.543v-17.727a1.48 1.48 0 0 1-.076-.494v-52.188c0-.211.034-.398.105-.56.035-6.237.072-16.797.02-21.605l-.991.55zm3.814 4.077l-1.48.841c.005 4.373-.015 9.734-.035 13.944.258-.315.559-.585.883-.774l.63-.372V218.83h.002zm0 72.482c-.49.253-1.084.364-1.552.197v9.397l1.552-1.127v-8.467zm-2.872-79.193c-.136-3.07-2.819-4.74-5.553-4.86h-.101l-2.152 1.21c-7.685 5.054-31.803 20.36-43.374 27.532-7.983 4.948-20.39 4.478-29.014 1.478-6.08-1.675-31.489-9.26-58.666-19.756-3.032-1.168-2.558-3.361-.996-5.42l-1.638.836c-4.213 2.359-7.604 7.705-7.604 11.815v20.262l1.17-.657v-15.523c.065-4.685 4.135-7.07 8.822-5.555l62.687 20.382c2.282.745 4.357 2.353 6.072 4.368 2.928 3.443 4.908 8.209 5 12.338v82.651c.014.196.009.366-.006.514.873.228 2.344.425 3.512-.16V255.672c0-4.665 3.723-10.412 8.28-12.967l53.58-30.003-.02-.583zm-95.956 62.03c.327.568.645 1.136.952 1.711l4.793-2.503a125.27 125.27 0 0 0-.952-1.71l-4.793 2.502zm-5.838-8.75c.403.521.797 1.052 1.185 1.586l4.788-2.499a59.23 59.23 0 0 0-1.19-1.586l-4.783 2.499zm-31.983-21.647c.994.165 1.99.386 2.983.645l4.169-2.177a31.22 31.22 0 0 0-3.22-.526l-3.932 2.058zm33.564 23.772c.379.536.758 1.072 1.124 1.62l4.793-2.508a69.727 69.727 0 0 0-1.129-1.614l-4.788 2.502zm6.707 11.25c.287.584.565 1.174.84 1.764l4.779-2.494a77.516 77.516 0 0 0-.831-1.773l-4.788 2.504zm-5.21-9.079c.36.544.717 1.087 1.068 1.643l4.793-2.506c-.351-.549-.705-1.1-1.07-1.638l-4.79 2.501zm1.42 2.206c.088.148.767 1.264 1.008 1.68l2.383-1.242 2.41-1.262a67.557 67.557 0 0 0-1.008-1.682l-4.793 2.506zm12.508 14.124l-4.754 2.483c.204.628.4 1.255.602 1.914l4.737-2.501-.1-.337c-.16-.524-.318-1.045-.485-1.56zm-3.97 5.019c.187.647.362 1.286.534 1.928l4.732-2.474a63.171 63.171 0 0 0-.524-1.933l-4.742 2.479zm-3.64-9.899c.269.598.527 1.196.778 1.798l4.773-2.494c-.248-.607-.509-1.205-.77-1.805l-4.78 2.501zm1.983 4.867c.226.62.447 1.235.659 1.86l4.759-2.484c-.214-.627-.43-1.247-.652-1.867l-4.766 2.491zm-.95-2.454c.247.607.485 1.212.716 1.83l4.766-2.492a65.66 65.66 0 0 0-.71-1.832l-4.771 2.494zm-3.33-7.115c.308.576.606 1.154.896 1.737l4.788-2.5a82.44 82.44 0 0 0-.89-1.738l-4.793 2.501zm-28.674-29.275c.71.342 1.419.706 2.122 1.092l4.555-2.378a44.551 44.551 0 0 0-2.182-1.067l-4.495 2.353zm2.818 1.476c.657.374 1.313.767 1.968 1.173l4.608-2.405a48.852 48.852 0 0 0-2.01-1.151l-4.566 2.383zm2.61 1.59c.614.394 1.227.812 1.839 1.245l4.65-2.43a43.593 43.593 0 0 0-1.869-1.23l-4.62 2.416zm14.487 13.087c.423.506.836 1.025 1.252 1.549l4.78-2.501c-.418-.521-.833-1.04-1.259-1.547l-4.773 2.499zm-26.408-18.666c.864.253 1.727.531 2.59.85l4.358-2.277a33.872 33.872 0 0 0-2.718-.78l-4.23 2.207zm3.416 1.163c.777.31 1.554.642 2.327.991l4.47-2.336a43.584 43.584 0 0 0-2.407-.95l-4.39 2.295zm10.944 6.084c.578.426 1.153.859 1.724 1.304l4.687-2.445a47.697 47.697 0 0 0-1.753-1.286l-4.658 2.427zm2.297 1.756c.546.44 1.087.89 1.628 1.355l4.707-2.461a56.04 56.04 0 0 0-1.645-1.343l-4.69 2.45zm7.995 7.626c.45.495.883 1.001 1.318 1.518l4.774-2.496c-.438-.514-.878-1.016-1.321-1.515l-4.771 2.493zm-1.842-1.992c.467.487.932.98 1.385 1.483l4.766-2.486a72.79 72.79 0 0 0-1.395-1.476l-4.756 2.48zm-3.991-3.809c.521.453 1.032.92 1.542 1.394l4.734-2.471a73.345 73.345 0 0 0-1.557-1.39l-4.72 2.467zm2.05 1.874c.492.47.977.952 1.461 1.444l4.752-2.482c-.49-.487-.98-.969-1.476-1.434l-4.736 2.472z" fill="#4D2425"/></g></svg>
